<?xml version="1.0" encoding="UTF-8" standalone="no"?>
<!-- Generator: Adobe Illustrator 18.1.1, SVG Export Plug-In . SVG Version: 6.00 Build 0)  -->

<svg
   xmlns:dc="http://purl.org/dc/elements/1.1/"
   xmlns:cc="http://creativecommons.org/ns#"
   xmlns:rdf="http://www.w3.org/1999/02/22-rdf-syntax-ns#"
   xmlns:svg="http://www.w3.org/2000/svg"
   xmlns="http://www.w3.org/2000/svg"
   xmlns:sodipodi="http://sodipodi.sourceforge.net/DTD/sodipodi-0.dtd"
   xmlns:inkscape="http://www.inkscape.org/namespaces/inkscape"
   version="1.1"
   id="Layer_1"
   x="0px"
   y="0px"
   viewBox="0 0 286 41"
   enable-background="new 0 0 286 41"
   xml:space="preserve"
   inkscape:version="0.91 r13725"
   sodipodi:docname="ublogo.svg"><metadata
     id="metadata117"><rdf:RDF><cc:Work
         rdf:about=""><dc:format>image/svg+xml</dc:format><dc:type
           rdf:resource="http://purl.org/dc/dcmitype/StillImage" /></cc:Work></rdf:RDF></metadata><defs
     id="defs115" /><sodipodi:namedview
     pagecolor="#ffffff"
     bordercolor="#666666"
     borderopacity="1"
     objecttolerance="10"
     gridtolerance="10"
     guidetolerance="10"
     inkscape:pageopacity="0"
     inkscape:pageshadow="2"
     inkscape:window-width="1156"
     inkscape:window-height="747"
     id="namedview113"
     showgrid="false"
     inkscape:zoom="2.47"
     inkscape:cx="141.88017"
     inkscape:cy="20.5"
     inkscape:window-x="0"
     inkscape:window-y="0"
     inkscape:window-maximized="0"
     inkscape:current-layer="Layer_1" /><path
     style="fill:#cccccc"
     inkscape:connector-curvature="0"
     id="path5"
     d="m 159.03277,36.382455 -20.60382,0 0,-8.418766 20.60382,0 c 2.65856,0 5.64944,0.775412 5.64944,4.874026 0.11077,3.323195 -3.98784,3.54474 -5.64944,3.54474 m -20.60382,-20.049961 6.2033,0 0,1.993919 c 0,2.437012 -1.55083,5.76021 -6.2033,5.76021 l 0,-7.754129 z m 13.62511,1.550826 0,-1.440052 6.75716,0 c 3.32319,0 5.64944,0.886186 5.64944,3.877064 0,2.769332 -2.8801,4.209384 -5.64944,3.877065 l -9.96959,0 c 2.21546,-1.772373 3.21243,-4.209385 3.21243,-6.314077 m 15.84058,8.086449 0,0 c 3.10165,-0.664639 5.98175,-2.769331 5.98175,-6.203302 0,-4.874025 -4.43093,-7.200264 -9.63728,-7.311037 l -12.18505,-0.110773 0,-6.9787163 c 0,-1.107733 0.44309,-1.661599 1.55082,-1.661599 l 4.32015,0 0,-3.655518 -19.71764,0 0,3.544744 4.9848,0 c 1.10773,0 1.55083,0.66464 1.55083,1.661599 l 0,6.9787173 -25.36709,0 0,3.877064 5.09558,0 c 1.10773,0 1.55082,1.550826 1.55082,2.658559 l 0,5.760209 c -9.41573,0 -10.63423,-4.652477 -10.63423,-8.640314 l 0,-10.5234613 c 0,-1.107733 1.10774,-1.661599 2.21547,-1.661599 l 3.98784,0 0,-3.655518 -25.256312,0 0,3.544744 4.874022,0 c 1.10774,0 1.55083,0.66464 1.55083,1.661599 l 0,10.4126873 c 0,8.640316 8.86186,11.963515 23.26238,11.963515 l 0,7.200261 c 0,1.107735 -0.66464,1.772371 -1.77237,1.772371 l -4.32015,0 0,3.544748 44.08775,0.110769 c 0.22155,0 10.63424,0.553867 10.63424,-7.53258 -0.11077,-3.987837 -3.10165,-6.314076 -6.75716,-6.757169" /><g
     id="g101" /><g
     id="g103" /><g
     id="g105" /><g
     id="g107" /><g
     id="g109" /><g
     id="g111" /></svg>